<?xml version="1.0" encoding="UTF-8" standalone="no"?>
<!-- Created with Inkscape (http://www.inkscape.org/) -->

<svg
   width="48.043758mm"
   height="48.02644mm"
   viewBox="0 0 48.043758 48.02644"
   version="1.1"
   id="svg1"
   xml:space="preserve"
   inkscape:version="1.4.2 (ebf0e940d0, 2025-05-08)"
   sodipodi:docname="favicon.ico"
   inkscape:export-filename="favicon.png"
   inkscape:export-xdpi="96"
   inkscape:export-ydpi="96"
   xmlns:inkscape="http://www.inkscape.org/namespaces/inkscape"
   xmlns:sodipodi="http://sodipodi.sourceforge.net/DTD/sodipodi-0.dtd"
   xmlns="http://www.w3.org/2000/svg"
   xmlns:svg="http://www.w3.org/2000/svg"><sodipodi:namedview
     id="namedview1"
     pagecolor="#ffffff"
     bordercolor="#000000"
     borderopacity="0.25"
     inkscape:showpageshadow="2"
     inkscape:pageopacity="0.0"
     inkscape:pagecheckerboard="0"
     inkscape:deskcolor="#d1d1d1"
     inkscape:document-units="mm"
     inkscape:zoom="1.3544463"
     inkscape:cx="100.77919"
     inkscape:cy="220.38526"
     inkscape:window-width="937"
     inkscape:window-height="276"
     inkscape:window-x="0"
     inkscape:window-y="0"
     inkscape:window-maximized="0"
     inkscape:current-layer="layer1" /><defs
     id="defs1" /><g
     inkscape:label="Layer 1"
     inkscape:groupmode="layer"
     id="layer1"
     transform="translate(-39.12585,-55.253461)"><path
       style="fill:#000000"
       d="m 51.203209,103.09273 -0.187216,-0.18722 v -3.086391 -3.0864 l -1.773358,-0.0261 c -1.667521,-0.0246 -1.797151,-0.0368 -2.172042,-0.20547 -0.466817,-0.20998 -0.95879,-0.71319 -1.189318,-1.21649 -0.148901,-0.32508 -0.165798,-0.51349 -0.191023,-2.12998 l -0.02767,-1.77336 h -3.114539 -3.114538 l -0.158083,-0.20097 c -0.199425,-0.25353 -0.199425,-0.41236 0,-0.66589 l 0.158083,-0.20097 h 3.121672 3.121675 v -2.36447 -2.36448 h -3.121675 -3.121675 l -0.158083,-0.20097 c -0.199425,-0.25353 -0.199425,-0.41236 0,-0.66589 l 0.158083,-0.20097 h 3.121675 3.121675 v -2.36448 -2.36447 h -3.121675 -3.121675 l -0.162395,-0.20645 c -0.189955,-0.24149 -0.156517,-0.52206 0.08675,-0.7279 0.144551,-0.12232 0.415382,-0.13348 3.238368,-0.13348 h 3.080625 v -2.36448 -2.36447 h -3.121673 -3.121675 l -0.162395,-0.20646 c -0.189955,-0.24148 -0.156517,-0.52205 0.08675,-0.72789 0.144551,-0.12232 0.415382,-0.13348 3.238368,-0.13348 h 3.080625 v -2.36448 -2.36448 h -3.121673 -3.121675 l -0.158083,-0.20097 c -0.207599,-0.26391 -0.199582,-0.45092 0.02913,-0.67964 l 0.187216,-0.18721 h 3.085405 3.085405 l 0.02621,-1.77336 c 0.02601,-1.76032 0.02776,-1.77653 0.238228,-2.20511 0.244633,-0.49815 0.684965,-0.92677 1.189699,-1.15805 0.320107,-0.14668 0.515833,-0.1641 2.125924,-0.18922 l 1.773358,-0.0277 v -3.0735 c 0,-2.87327 0.0092,-3.0848 0.140661,-3.24719 0.173604,-0.21439 0.556154,-0.23159 0.773635,-0.0348 0.149086,0.13492 0.153532,0.22915 0.153532,3.25433 v 3.11539 h 2.364476 2.364477 v -3.08062 c 0,-2.88021 0.0092,-3.09193 0.140661,-3.25434 0.191238,-0.23617 0.595268,-0.23617 0.786506,0 0.13151,0.16241 0.140661,0.37413 0.140661,3.25434 v 3.08062 h 2.364477 2.364476 v -3.08062 c 0,-2.88021 0.0092,-3.09193 0.140661,-3.25434 0.191239,-0.23617 0.595268,-0.23617 0.786506,0 0.131511,0.16241 0.140661,0.37413 0.140661,3.25434 v 3.08062 h 2.364477 2.364477 v -3.09254 -3.09254 l 0.194522,-0.19452 c 0.2257,-0.2257 0.517809,-0.20177 0.739827,0.0606 0.122316,0.14455 0.133479,0.41538 0.133479,3.23837 v 3.08062 h 2.364477 2.364476 v -3.11539 c 0,-3.02518 0.0044,-3.11941 0.153531,-3.25433 0.217482,-0.19682 0.600032,-0.17963 0.773636,0.0348 0.1315,0.1624 0.140661,0.37395 0.140661,3.24809 v 3.07438 l 1.735221,0.0306 c 1.969258,0.0347 2.210617,0.0866 2.794535,0.60055 0.191438,0.16851 0.437817,0.4948 0.557214,0.73794 0.212965,0.43368 0.214165,0.44472 0.240239,2.20921 l 0.0262,1.77336 h 3.073491 c 2.81619,0 3.08669,0.0112 3.23123,0.13348 0.24327,0.20585 0.27671,0.48641 0.0867,0.7279 l -0.16239,0.20645 h -3.12163 -3.12167 v 2.36447 2.36448 h 3.09254 3.09254 l 0.18722,0.18722 c 0.22872,0.22871 0.23673,0.41572 0.0291,0.67964 l -0.15808,0.20097 h -3.12165 -3.12167 v 2.36448 2.36447 h 3.08062 c 2.82299,0 3.09382,0.0112 3.23837,0.13348 0.24327,0.20585 0.27671,0.48641 0.0867,0.7279 l -0.16239,0.20645 h -3.12163 -3.12167 v 2.36448 2.36447 h 3.12167 3.12168 l 0.15808,0.20097 c 0.087,0.11054 0.15809,0.26036 0.15809,0.33295 0,0.0726 -0.0711,0.22241 -0.15809,0.33294 l -0.15808,0.20097 h -3.12168 -3.12167 v 2.36448 2.36448 h 3.09254 3.09254 l 0.18722,0.18721 c 0.22872,0.22872 0.23673,0.41573 0.0291,0.67964 l -0.15808,0.20097 h -3.11454 -3.114537 l -0.0262,1.77336 c -0.02601,1.76032 -0.02776,1.77653 -0.238228,2.20511 -0.244201,0.49727 -0.683755,0.92563 -1.189699,1.15939 -0.321891,0.14873 -0.506861,0.16511 -2.125924,0.18824 l -1.773358,0.0253 v 3.0864 3.086391 l -0.187216,0.18722 c -0.228716,0.22871 -0.415724,0.23673 -0.679642,0.0291 l -0.20097,-0.15808 v -3.121681 -3.12167 H 71.838617 69.47414 v 3.12167 3.121681 l -0.20097,0.15808 c -0.110533,0.0869 -0.260358,0.15808 -0.332944,0.15808 -0.07259,0 -0.222411,-0.0711 -0.332945,-0.15808 l -0.200969,-0.15808 v -3.121681 -3.12167 h -2.364477 -2.364477 v 3.12167 3.121681 l -0.200969,0.15808 c -0.110534,0.0869 -0.260359,0.15808 -0.332945,0.15808 -0.07259,0 -0.222411,-0.0711 -0.332944,-0.15808 l -0.20097,-0.15808 v -3.121681 -3.12167 h -2.364476 -2.364477 v 3.12167 3.121681 l -0.20097,0.15808 c -0.263918,0.2076 -0.450926,0.19958 -0.679641,-0.0291 l -0.187217,-0.18722 v -3.092541 -3.09254 h -2.364452 -2.364476 v 3.12168 3.121671 l -0.20097,0.15808 c -0.263919,0.2076 -0.450926,0.19958 -0.679642,-0.0291 z m 27.623496,-7.640211 c 0.143504,-0.0681 0.337468,-0.23114 0.431031,-0.3623 l 0.170113,-0.23849 v -15.59792 -15.59792 l -0.170113,-0.23848 c -0.375664,-0.52665 0.967788,-0.48611 -16.109764,-0.48611 -15.301645,0 -15.420083,10e-4 -15.718843,0.15357 -0.194125,0.099 -0.355762,0.26086 -0.45515,0.45568 -0.153343,0.30057 -0.154022,0.38035 -0.134505,15.80664 l 0.01962,15.50454 0.169189,0.23719 c 0.374265,0.52468 -0.983016,0.48375 16.103663,0.48567 14.084191,0.002 15.456661,-0.009 15.694763,-0.12207 z"
       id="path1"
       sodipodi:nodetypes="ccccccsscccsscccccccsscccccccssscccccssscccccsscccsssccscsscccscsscccscsscccccssscccscssccssscscccccccccsscccccsccccccccccsccccccccsccccsssccccssccccccccscccccccccsccccccccsscccccccsscsscccsscsscscss" /><path
       style="fill:#e5121e;fill-opacity:1;stroke:#000000;stroke-width:0.279522"
       d="m 188.03532,360.99287 c -9.01773,-0.16897 -9.33439,-0.22028 -10.22775,-1.6574 l -0.56803,-0.91377 -0.0564,-58.01404 c -0.0445,-45.70921 -0.008,-58.24528 0.17343,-59.10428 0.2759,-1.3087 0.90658,-2.19235 1.95334,-2.73688 0.768,-0.39951 0.90345,-0.40467 14.82688,-0.56532 17.73449,-0.20461 97.85837,-0.0335 101.10439,0.21595 3.16146,0.24293 3.49593,0.36829 4.28857,1.60739 l 0.6427,1.00469 v 58.76553 58.76553 l -0.64136,0.83996 c -0.35275,0.46198 -0.95596,1.03462 -1.34047,1.27253 l -0.69911,0.43258 -9.52195,0.1243 c -12.26661,0.16014 -90.97099,0.13118 -99.93421,-0.0368 z"
       id="path3"
       transform="scale(0.26458333)" /><path
       style="fill:#ffffff;stroke:#1a1a1a;stroke-width:0.8;stroke-dasharray:none"
       d="m 58.041307,90.039182 c 0,-0.545486 0.01967,-0.562359 0.770035,-0.66118 1.365413,-0.179841 1.578851,-0.245542 2.070148,-0.637192 l 0.483118,-0.385137 0.04585,-8.826135 c 0.02931,-5.650224 -0.0129,-8.980737 -0.117497,-9.255785 -0.234695,-0.617303 -1.042509,-1.04156 -2.224135,-1.168102 l -1.027427,-0.110019 v -0.548508 -0.548508 h 5.106545 5.106532 l -0.0025,0.364753 c -0.0038,0.59499 -0.191604,0.731004 -1.177431,0.853888 -1.277391,0.159237 -1.930278,0.62309 -2.170873,1.542352 -0.261012,0.997329 -0.290574,16.08938 -0.03345,17.11028 0.23373,0.928231 0.812023,1.347276 2.113051,1.531176 1.129054,0.159599 1.321033,0.287455 1.244447,0.828771 l -0.05424,0.383448 -5.066009,0.04284 -5.066022,0.04284 z"
       id="path2" /></g></svg>
