<?xml version="1.0" encoding="UTF-8" standalone="no"?>
<!-- Created with Inkscape (http://www.inkscape.org/) -->

<svg
   width="66.053093mm"
   height="38.296249mm"
   viewBox="0 0 66.053093 38.296249"
   version="1.1"
   id="svg1"
   xml:space="preserve"
   inkscape:version="1.4.2 (ebf0e940d0, 2025-05-08)"
   sodipodi:docname="logo.svg"
   inkscape:export-filename="/home/corsi/logo.png"
   inkscape:export-xdpi="180"
   inkscape:export-ydpi="180"
   xmlns:inkscape="http://www.inkscape.org/namespaces/inkscape"
   xmlns:sodipodi="http://sodipodi.sourceforge.net/DTD/sodipodi-0.dtd"
   xmlns="http://www.w3.org/2000/svg"
   xmlns:svg="http://www.w3.org/2000/svg"><sodipodi:namedview
     id="namedview1"
     pagecolor="#ffffff"
     bordercolor="#000000"
     borderopacity="0.25"
     inkscape:showpageshadow="2"
     inkscape:pageopacity="0.0"
     inkscape:pagecheckerboard="0"
     inkscape:deskcolor="#d1d1d1"
     inkscape:document-units="mm"
     inkscape:zoom="1.4583705"
     inkscape:cx="118.2827"
     inkscape:cy="72.341011"
     inkscape:window-width="1181"
     inkscape:window-height="614"
     inkscape:window-x="0"
     inkscape:window-y="0"
     inkscape:window-maximized="0"
     inkscape:current-layer="layer1"
     showguides="false" /><defs
     id="defs1" /><g
     inkscape:label="Layer 1"
     inkscape:groupmode="layer"
     id="layer1"
     transform="translate(-19.781796,-85.725629)"><path
       style="fill:#1a1a1a;stroke-width:0.4;stroke:#000000;stroke-dasharray:none"
       d="m 31.311849,103.5637 c -0.121361,-0.1269 -0.148871,-0.34712 -0.148871,-1.19172 v -1.03604 h -0.318419 c -0.351004,0 -0.900617,-0.23313 -1.139885,-0.48351 -0.239079,-0.25018 -0.430707,-0.75341 -0.430707,-1.131072 v -0.343223 h -1.114786 c -1.240354,0 -1.223988,0.0081 -1.223988,-0.604924 0,-0.439429 0.174131,-0.501665 1.403627,-0.501665 h 0.942151 l -0.02599,-0.744819 -0.02599,-0.74482 -0.991237,-0.0047 c -0.545181,-0.0026 -1.061286,-0.03008 -1.1469,-0.06117 -0.117858,-0.0428 -0.155661,-0.1564 -0.155661,-0.467783 0,-0.226192 0.04858,-0.457224 0.107943,-0.513405 0.07187,-0.06801 0.465896,-0.102147 1.179011,-0.102147 0.939717,0 1.064372,-0.01651 1.016467,-0.134646 -0.03003,-0.07406 -0.0546,-0.418799 -0.0546,-0.766099 v -0.631408 h -1.023443 c -1.174315,0 -1.251852,-0.03919 -1.208387,-0.610846 l 0.02799,-0.36806 1.09561,-0.02386 1.095608,-0.02386 0.02881,-0.763723 0.02881,-0.763724 -1.038955,1.95e-4 c -0.688393,1.29e-4 -1.075378,-0.03427 -1.146899,-0.10195 -0.139816,-0.132309 -0.139816,-0.769989 0,-0.902297 0.07108,-0.06725 0.451181,-0.102147 1.112792,-0.102147 h 1.004847 l 0.06008,-0.502513 c 0.102532,-0.8576 0.648847,-1.395818 1.533255,-1.510529 l 0.40381,-0.05238 0.02501,-1.116627 0.02501,-1.116627 h 0.49474 0.494741 l 0.04498,1.106588 0.04498,1.10659 h 0.809576 0.809576 l -0.03285,-0.944908 c -0.04241,-1.220104 0.01169,-1.328518 0.645604,-1.293817 l 0.466676,0.02554 0.0251,1.127869 0.0251,1.127871 h 0.804354 0.804354 l 0.0251,-1.127871 0.0251,-1.127869 0.434265,-0.02622 c 0.661616,-0.03993 0.690146,0.01084 0.690146,1.228349 v 1.053606 h 0.7646 0.764599 v -1.047014 c 0,-0.70084 0.03569,-1.080777 0.107944,-1.149151 0.05937,-0.05618 0.273906,-0.102147 0.47675,-0.102147 0.202843,0 0.417381,0.04597 0.47675,0.102147 0.07225,0.06838 0.107944,0.448311 0.107944,1.149151 v 1.047003 l 0.427276,0.0018 c 0.466048,0.0021 1.058024,0.219863 1.300886,0.478676 0.248223,0.264528 0.430706,0.761926 0.430706,1.173984 v 0.383165 l 1.100253,0.0239 1.100252,0.0239 0.181576,0.273368 -0.07367,0.241462 4.369275,0.03521 4.114033,0.0033 0.968305,-0.948684 c 1.154314,-1.130925 2.603838,-2.475449 2.757222,-2.557498 0.1707,-0.09131 1.432008,-0.140372 3.792583,-0.147522 l 2.163286,-0.0066 0.105981,-0.276648 c 0.440019,-1.148593 2.104955,-1.724619 3.31149,-1.145692 0.511823,0.245586 0.982253,0.705801 1.180555,1.154914 0.190968,0.432507 0.162046,1.379885 -0.05439,1.781338 -0.434564,0.806068 -1.525896,1.378305 -2.409934,1.263642 -0.894579,-0.115994 -1.699898,-0.641733 -2.015029,-1.315439 l -0.126472,-0.270363 h -2.728983 -2.728976 l -1.794089,1.636826 c -0.986749,0.900255 -1.963003,1.621665 -1.994077,1.741991 -0.04257,0.164847 -1.259896,0.105907 -4.499706,0.108179 -4.515244,0.0032 -4.589326,-0.0025 -4.915531,-0.374421 -0.09048,-0.103166 -0.302492,-0.133293 -0.937955,-0.133282 l -0.82105,1.3e-5 -0.0041,0.766087 -0.0041,0.766086 h 1.140095 1.140097 l 0.116892,0.267049 c 0.09817,0.224268 0.09579,0.302677 -0.01487,0.489453 -0.129711,0.218959 -0.149122,0.222776 -1.252878,0.246398 l -1.121126,0.02399 -0.0074,0.763388 -0.0074,0.763387 h 1.193987 c 0.656692,0 1.212737,0.02873 1.235654,0.06384 0.02292,0.03512 2.957857,0.04469 6.522089,0.02128 l 6.480423,-0.04256 1.070084,-1.000186 1.070086,-1.000187 h 4.906164 4.906162 l 0.227693,-0.581299 c 0.125234,-0.319716 0.274413,-0.745474 0.331508,-0.94613 0.190438,-0.669246 0.764347,-0.978547 1.121926,-0.604648 0.08743,0.09142 0.318194,0.71372 0.512801,1.38288 0.194607,0.669161 0.389225,1.250142 0.432475,1.291071 0.04488,0.04248 0.199949,-0.304495 0.361248,-0.808304 0.499601,-1.56047 0.552547,-1.689145 0.748487,-1.819019 0.505107,-0.334791 0.678263,-0.121751 1.141535,1.404471 0.206062,0.678851 0.4063,1.265329 0.444975,1.303286 0.0387,0.03795 0.220061,-0.498314 0.403079,-1.191711 0.3831,-1.451451 0.48416,-1.643775 0.863756,-1.643775 0.399497,0 0.585458,0.240956 0.897605,1.163083 0.155334,0.458895 0.325444,0.8834 0.37802,0.943344 0.07493,0.08545 0.748724,0.10415 3.119498,0.08659 l 3.023913,-0.0224 c 1.473231,-0.219947 1.117807,0.891078 0.950317,0.975912 -0.269961,0.136719 -7.361906,0.116664 -7.651912,-0.02164 -0.123684,-0.05898 -0.330108,-0.29095 -0.458712,-0.515476 l -0.233833,-0.40823 -0.09895,0.240084 c -0.05441,0.132045 -0.228455,0.718896 -0.386739,1.304111 -0.158288,0.585215 -0.348763,1.131062 -0.423278,1.212992 -0.07915,0.08703 -0.261495,0.148964 -0.438599,0.148964 -0.355819,0 -0.323705,0.0613 -0.856557,-1.634999 -0.203947,-0.649263 -0.402491,-1.150299 -0.441198,-1.113415 -0.0387,0.03689 -0.232546,0.603333 -0.43074,1.258775 -0.366046,1.21051 -0.53701,1.489639 -0.91239,1.489639 -0.29783,0 -0.511293,-0.40995 -0.808067,-1.551879 -0.161444,-0.621209 -0.343828,-1.223468 -0.405297,-1.338351 -0.108862,-0.203465 -0.120215,-0.192987 -0.438089,0.404331 l -0.326336,0.61321 H 65.681418 60.62293 l -1.056716,1.021466 -1.056719,1.021468 -7.893825,1.05e-4 -7.893825,1.05e-4 v 0.766027 0.766028 l 1.06559,-3.3e-5 c 1.663788,-5e-5 1.873232,0.0818 3.076981,1.202443 l 0.994221,0.925572 h 9.624637 9.624636 l 0.107967,-0.28254 c 0.301653,-0.789391 1.229822,-1.356284 2.21981,-1.355775 0.92757,4.77e-4 1.636496,0.387094 2.060011,1.123441 0.851559,1.480574 -0.109032,3.211774 -1.877992,3.384534 -0.999401,0.0976 -1.998446,-0.48228 -2.396471,-1.39102 l -0.205142,-0.46837 -6.390141,0.0127 c -3.514576,0.007 -7.924722,0.01 -9.800326,0.006 l -3.410188,-0.007 -1.091858,-1.02147 -1.091859,-1.021455 h -1.260617 -1.260617 l -0.02163,0.39538 c -0.05126,0.937045 -0.756989,1.562425 -1.763182,1.562425 h -0.407677 v 1.1036 c 0,1.00397 -0.0157,1.11154 -0.173992,1.1917 -0.273391,0.13846 -0.619189,0.10364 -0.815489,-0.0821 -0.159917,-0.15132 -0.179906,-0.28373 -0.179906,-1.19171 v -1.02146 h -0.7646 -0.764599 v 1.10359 c 0,1.23057 -0.02505,1.27983 -0.650743,1.27983 -0.482699,0 -0.518645,-0.0897 -0.518645,-1.29386 v -1.08998 h -0.806965 -0.806965 l -0.0251,1.12594 -0.0251,1.12594 -0.24737,0.0822 c -0.159049,0.0529 -0.335692,0.0529 -0.494742,0 l -0.24737,-0.0822 -0.0251,-1.12594 -0.0251,-1.12594 h -0.806965 -0.806964 v 0.94194 c 0,0.899 -0.07344,1.22951 -0.305814,1.37633 -0.182221,0.11514 -0.564302,0.0667 -0.714703,-0.0905 z m 38.832049,-1.59903 c 0.497027,-0.34311 0.649186,-1.0476 0.332449,-1.53917 -0.356112,-0.552664 -0.945893,-0.724931 -1.577205,-0.460664 -0.960669,0.402124 -0.965929,1.695514 -0.0086,2.105974 0.353694,0.15164 0.953485,0.10085 1.253316,-0.10614 z"
       id="path1"
       sodipodi:nodetypes="cscssscsssccccsssssscsscccccsssscsscccccccccsscccccccsscccsssssccsscccccccssscsssssscccsscsscccccssscccssscccccsssssssscssssscssscssssssssssscccccccccsscccsssssccccccccsscsssscccssscccccsscccccsscccssscc" /><path
       style="fill:#000000;stroke:#000000;stroke-width:0.4;stroke-dasharray:none"
       d="m 51.267214,123.6397 c 0,-0.21034 0.327422,-0.53932 0.727604,-0.73108 l 0.727604,-0.34864 0.06971,-8.79392 0.06971,-8.79392 -0.863462,9.9e-4 c -1.485744,0.002 -3.380947,1.51767 -2.890138,2.31182 0.101949,0.16495 0.51036,0.42348 0.907581,0.57451 0.558814,0.21246 0.722219,0.44925 0.722219,1.04657 0,1.38654 -1.549324,1.51324 -2.365025,0.19341 -0.614711,-0.99463 -1.008222,-1.21688 -2.154531,-1.21688 -0.791453,0 -1.830444,0.79258 -1.830444,1.39633 0,0.83041 0.893657,1.5039 2.86801,2.16142 2.436582,0.81146 3.46024,1.71409 3.65827,3.22575 0.165736,1.26514 -0.669904,2.64307 -2.033637,3.35337 -0.738335,0.38456 -1.235301,0.44315 -2.508268,0.29572 -0.873125,-0.10112 -2.093516,-0.17365 -2.711979,-0.16117 l -1.12448,0.0227 v -1.83977 c 0,-1.64199 0.05497,-1.83976 0.511337,-1.83976 0.281236,0 0.587119,0.23877 0.679742,0.5306 0.291545,0.91857 1.437343,2.06845 2.366766,2.37519 1.217333,0.40175 2.699475,-0.19544 2.94861,-1.18807 0.280467,-1.11747 -0.245412,-1.87411 -1.65887,-2.38679 -3.177807,-1.15264 -4.062399,-1.66805 -4.448412,-2.59191 -0.787982,-1.88591 0.600823,-3.94747 2.890592,-4.29085 0.64382,-0.0965 1.294223,-0.0991 1.44534,-0.006 0.151117,0.0934 0.708573,-0.31037 1.238792,-0.89726 1.011509,-1.11962 2.801402,-1.85344 5.469333,-2.24233 l 1.256771,-0.18319 v 2.3783 2.37829 l 1.556977,-0.803 c 1.314277,-0.67782 1.730044,-0.77375 2.667232,-0.61542 1.377362,0.23271 2.778023,1.41688 3.204542,2.70924 0.429702,1.30201 0.381886,4.2563 -0.087,5.37544 -1.169294,2.79088 -4.202959,4.1273 -6.878727,3.03029 -0.418307,-0.1715 -0.463021,0.0155 -0.463021,1.93624 0,2.33125 0.312194,2.95763 1.474107,2.95763 0.466171,0 0.64256,0.14526 0.64256,0.52916 0,0.49849 -0.176389,0.52917 -3.042709,0.52917 -2.47719,0 -3.042708,-0.0711 -3.042708,-0.38244 z m 7.865848,-6.65906 c 1.051612,-0.66294 1.516356,-1.91065 1.516356,-4.071 0,-2.314 -0.490121,-3.47059 -1.745908,-4.11998 -0.96324,-0.49811 -2.186039,-0.33858 -3.072234,0.40081 -0.558644,0.46611 -0.595312,0.69876 -0.595312,3.77716 0,3.59045 0.145995,4.03377 1.455515,4.41977 0.883641,0.26046 1.562612,0.14735 2.441583,-0.40676 z m 8.395078,0.98792 c -2.49093,-1.13147 -3.622305,-4.11238 -2.751267,-7.24896 0.314917,-1.13401 1.579687,-2.69469 2.603057,-3.21207 1.68861,-0.85371 4.15405,-0.71791 5.56207,0.30638 0.84299,0.61325 1.87313,2.57345 1.87313,3.56429 v 0.73769 h -3.96875 -3.96875 v 0.71022 c 0,1.35455 0.99698,2.91704 2.24757,3.52244 1.51118,0.73155 2.77127,0.51037 4.14068,-0.72681 1.11188,-1.00453 2.07726,-1.05286 1.55547,-0.0779 -1.31891,2.46442 -4.71798,3.59448 -7.29321,2.42471 z m 4.90574,-7.18408 c 0,-0.55777 -0.81473,-2.1979 -1.25958,-2.53566 -0.55352,-0.42028 -2.01949,-0.47078 -2.72382,-0.0938 -0.51138,0.27369 -1.08317,1.19957 -1.42487,2.30727 -0.18243,0.59138 -0.16521,0.59531 2.61232,0.59531 1.74558,0 2.79595,-0.10259 2.79595,-0.27308 z m -52.652084,7.04826 c 0,-0.40181 0.555046,-0.68977 1.329553,-0.68977 0.270889,0 0.67787,-0.26461 0.904402,-0.58803 0.34507,-0.49266 0.411878,-1.6204 0.411878,-6.95259 0,-7.08804 -0.0762,-7.43752 -1.65492,-7.59026 -0.561736,-0.0543 -0.884325,-0.24122 -0.942001,-0.54568 -0.0803,-0.42389 0.239798,-0.46302 3.787546,-0.46302 3.547749,0 3.867847,0.0391 3.787547,0.46302 -0.05768,0.30446 -0.380265,0.49133 -0.942001,0.54568 -1.578723,0.15274 -1.654921,0.50222 -1.654921,7.59026 0,5.33219 0.06681,6.45993 0.411878,6.95259 0.226533,0.32342 0.633514,0.58803 0.904402,0.58803 0.774508,0 1.329554,0.28796 1.329554,0.68977 0,0.29809 -0.73362,0.36857 -3.836459,0.36857 -3.102838,0 -3.836458,-0.0705 -3.836458,-0.36857 z m 9.117246,0.0864 c -0.09592,-0.1552 -0.132713,-0.3103 -0.08176,-0.34466 0.05095,-0.0344 0.420062,-0.26731 0.820244,-0.51766 l 0.727605,-0.45519 v -3.67917 c 0,-2.99192 -0.07767,-3.75683 -0.415774,-4.09494 -0.228676,-0.22868 -0.526332,-0.41578 -0.661459,-0.41578 -0.298229,0 -0.328609,-0.71127 -0.03805,-0.89084 0.114199,-0.0706 0.947636,-0.21205 1.852083,-0.31437 l 1.644449,-0.18605 v 0.87404 0.87405 l 0.598923,-0.56266 c 2.057936,-1.93333 5.17839,-1.59948 6.031869,0.64534 0.136606,0.3593 0.250198,2.2231 0.252426,4.14178 0.0042,3.60091 0.07244,3.93806 0.855845,4.22711 0.254661,0.0939 0.46302,0.35316 0.46302,0.57601 0,0.33541 -0.432776,0.40518 -2.513541,0.40518 -2.080766,0 -2.513542,-0.0698 -2.513542,-0.40518 0,-0.22285 0.208359,-0.48206 0.463021,-0.57601 0.254661,-0.094 0.550494,-0.29859 0.657407,-0.45472 0.293262,-0.42828 0.241223,-6.99317 -0.05989,-7.55581 -0.5542,-1.03554 -2.544979,-0.90092 -3.695802,0.2499 -0.488002,0.488 -0.539732,0.87002 -0.539732,3.98587 0,3.43242 0.0026,3.44713 0.661458,3.69761 0.363802,0.13832 0.661458,0.43303 0.661458,0.65491 0,0.33303 -0.435914,0.40343 -2.497926,0.40343 -1.483764,0 -2.568734,-0.11457 -2.672328,-0.28219 z m 47.239004,-0.10025 c 0,-0.21034 0.32742,-0.53937 0.7276,-0.73117 l 0.72761,-0.34873 v -3.96519 -3.96518 l -0.8599,-0.37848 c -1.31289,-0.57786 -1.07462,-1.01426 0.66146,-1.21147 0.83674,-0.095 1.69995,-0.19291 1.91823,-0.21747 0.29492,-0.0332 0.4179,0.28571 0.47871,1.2414 l 0.0818,1.28606 0.92585,-1.08165 c 1.18918,-1.38928 2.57652,-1.8613 3.72504,-1.26738 1.62144,0.83848 1.78748,3.34878 0.22151,3.34878 -0.48671,0 -0.84206,-0.28236 -1.33191,-1.05833 -0.80008,-1.26742 -1.26259,-1.3205 -2.25443,-0.25873 -0.85,0.90993 -1.3193,2.68453 -1.31383,4.9681 0.005,2.27379 0.17543,2.65209 1.34977,3.00393 0.56533,0.16938 1.02787,0.46771 1.02787,0.66295 0,0.27636 -0.67401,0.355 -3.04271,0.355 -2.47719,0 -3.04271,-0.0711 -3.04271,-0.38244 z"
       id="path2" /></g></svg>
